<?xml version="1.0" encoding="iso-8859-1"?>
<!-- Generator: Adobe Illustrator 19.0.0, SVG Export Plug-In . SVG Version: 6.00 Build 0)  -->
<svg xmlns="http://www.w3.org/2000/svg" xmlns:xlink="http://www.w3.org/1999/xlink" version="1.1" id="Capa_1" x="0px" y="0px" viewBox="0 0 512 512" style="enable-background:new 0 0 512 512;" xml:space="preserve" width="512px" height="512px">
<g>
	<g>
		<circle cx="256.005" cy="35.892" r="7.199" fill="#D80027"/>
	</g>
</g>
<g>
	<g>
		<path d="M378.007,416.033h-86.672c-4.143,0-7.5,3.358-7.5,7.5c0,4.143,3.357,7.5,7.5,7.5h86.672c4.143,0,7.5-3.357,7.5-7.5    S382.15,416.033,378.007,416.033z" fill="#D80027"/>
	</g>
</g>
<g>
	<g>
		<path d="M348.945,43.06h-14.274c-4.143,0-7.5,3.358-7.5,7.5s3.357,7.5,7.5,7.5h14.274c11.89,0,21.561,9.673,21.561,21.561v199.617    c0,4.143,3.357,7.5,7.5,7.5s7.5-3.357,7.5-7.5V79.622C385.507,59.461,369.105,43.06,348.945,43.06z" fill="#D80027"/>
	</g>
</g>
<g>
	<g>
		<path d="M378.007,306.742c-4.143,0-7.5,3.357-7.5,7.5v5.619c0,15.749-12.814,28.563-28.562,28.563H263.5V336.41h77.063    c9.479,0,17.19-7.711,17.19-17.19c0-9.91,0-220.424,0-230.968c0-9.48-7.711-17.19-17.19-17.19H171.437    c-9.48,0-17.191,7.711-17.191,17.19v17.89c0,4.142,3.358,7.5,7.5,7.5c4.143,0,7.5-3.358,7.5-7.5V88.251    c0-1.207,0.983-2.189,2.19-2.189h169.125c1.207,0,2.189,0.982,2.189,2.189v74.042c-14.857-0.563-14.763,19.976-29.274,19.976    c-14.322,0-14.403-20.001-28.731-20.001c-14.317,0-14.422,20.001-28.729,20.001c-14.327,0-14.399-20.001-28.726-20.001    c-14.328,0-14.403,20.001-28.726,20.001c-14.573,0-14.378-20.578-29.32-19.975v-21.152c0-4.142-3.357-7.5-7.5-7.5    c-4.142,0-7.5,3.358-7.5,7.5v35.262v142.815c0,9.479,7.711,17.19,17.191,17.19H248.5v12.014h-77.8    c-16.105,0-29.207-13.103-29.207-29.207V80.073c0-12.138,9.875-22.013,22.013-22.013h63.695c4.143,0,7.5-3.358,7.5-7.5V36.298    C234.702,24.555,244.257,15,256,15c11.744,0,21.298,9.555,21.298,21.298v14.261c0,4.142,3.357,7.5,7.5,7.5h14.871    c4.143,0,7.5-3.358,7.5-7.5c0-4.142-3.357-7.5-7.5-7.5h-7.37v-6.76C292.299,16.284,276.016,0,255.999,0    C235.983,0,219.7,16.284,219.7,36.299v6.76h-56.194c-20.409,0-37.014,16.605-37.014,37.014v239.143    c0,24.376,19.831,44.208,44.208,44.208h77.8v8.581c-2.656,0-19.125,0-22.834,0c-4.143,0-7.5,3.358-7.5,7.5    c0,4.143,3.357,7.5,7.5,7.5h8.435v22.128c0,9.454,6.021,17.526,14.43,20.586v34.296c0,18.187-14.796,32.982-32.982,32.982    c-18.187,0-32.982-14.796-32.982-32.982s14.796-32.982,32.982-32.982h3.986c4.143,0,7.5-3.357,7.5-7.5c0-4.142-3.357-7.5-7.5-7.5    h-3.986c-26.458,0-47.983,21.526-47.983,47.983c0,26.458,21.526,47.983,47.983,47.983c26.458,0,47.983-21.525,47.983-47.983V429.7    c8.377-3.077,14.369-11.135,14.369-20.565v-22.128h8.436c4.143,0,7.5-3.357,7.5-7.5c0-4.142-3.357-7.5-7.5-7.5    c-4.044,0-13.396,0-22.834,0v-8.581h78.445c24.021,0,43.563-19.542,43.563-43.564v-5.619    C385.507,310.099,382.15,306.742,378.007,306.742z M171.437,321.408v0.001c-1.207,0-2.19-0.982-2.19-2.189V178.87    c0.199-0.262,0.402-0.522,0.598-0.766c4.642,5.785,11.538,19.168,28.723,19.168c16.864,0,23.581-12.766,28.726-19.168    c4.644,5.788,11.542,19.168,28.726,19.168c16.83,0,23.55-12.714,28.729-19.17c4.651,5.793,11.548,19.17,28.731,19.17    c16.829,0,23.519-12.678,28.73-19.17c0.178,0.222,0.362,0.458,0.544,0.695v37.94h-7.867c-4.143,0-7.5,3.358-7.5,7.5    c0,4.142,3.357,7.5,7.5,7.5h7.867v21.25h-7.867c-4.143,0-7.5,3.357-7.5,7.5s3.357,7.5,7.5,7.5h7.867v21.251h-7.867    c-4.143,0-7.5,3.357-7.5,7.5s3.357,7.5,7.5,7.5h7.867v14.978c0,1.207-0.982,2.189-2.189,2.189H171.437z M262.9,409.134    L262.9,409.134c-0.001,3.804-3.096,6.898-6.899,6.898c-3.804,0-6.898-3.095-6.898-6.898v-22.128H262.9V409.134z" fill="#D80027"/>
	</g>
</g>
<g>
</g>
<g>
</g>
<g>
</g>
<g>
</g>
<g>
</g>
<g>
</g>
<g>
</g>
<g>
</g>
<g>
</g>
<g>
</g>
<g>
</g>
<g>
</g>
<g>
</g>
<g>
</g>
<g>
</g>
</svg>
