<?xml version="1.0" encoding="iso-8859-1"?>
<!-- Generator: Adobe Illustrator 19.0.0, SVG Export Plug-In . SVG Version: 6.00 Build 0)  -->
<svg version="1.1" id="Capa_1" xmlns="http://www.w3.org/2000/svg" xmlns:xlink="http://www.w3.org/1999/xlink" x="0px" y="0px"
	 viewBox="0 0 512 512" style="enable-background:new 0 0 512 512;" xml:space="preserve">
<path style="fill:#F1543F;" d="M484.267,270.933c0,75.733-61.867,137.6-137.6,137.6s-137.6-61.867-137.6-137.6s137.6-240,137.6-240
	S484.267,194.133,484.267,270.933z"/>
<path style="fill:#FF7058;" d="M402.133,325.333C402.133,428.8,317.867,512,215.467,512S27.733,427.733,27.733,325.333
	S214.4,0,214.4,0S402.133,221.867,402.133,325.333z"/>
<path style="fill:#F1543F;" d="M208,455.467c-70.4,0-126.933-57.6-126.933-126.933c0-6.4-4.267-10.667-10.667-10.667
	c-6.4,0-10.667,4.267-10.667,10.667C59.733,410.667,125.867,476.8,208,476.8c6.4,0,10.667-4.267,10.667-10.667
	C218.667,459.733,214.4,455.467,208,455.467z"/>
<circle style="fill:#FFFFFF;" cx="214.4" cy="295.467" r="84.267"/>
<g>
	<rect x="166.4" y="284.8" style="fill:#FF7058;" width="96" height="21.333"/>
	<rect x="204.8" y="247.467" style="fill:#FF7058;" width="21.333" height="96"/>
</g>
<g>
</g>
<g>
</g>
<g>
</g>
<g>
</g>
<g>
</g>
<g>
</g>
<g>
</g>
<g>
</g>
<g>
</g>
<g>
</g>
<g>
</g>
<g>
</g>
<g>
</g>
<g>
</g>
<g>
</g>
</svg>
