<?xml version="1.0" encoding="iso-8859-1"?>
<!-- Generator: Adobe Illustrator 19.0.0, SVG Export Plug-In . SVG Version: 6.00 Build 0)  -->
<svg version="1.1" id="Capa_1" xmlns="http://www.w3.org/2000/svg" xmlns:xlink="http://www.w3.org/1999/xlink" x="0px" y="0px"
	 viewBox="0 0 512 512" style="enable-background:new 0 0 512 512;" xml:space="preserve">
<path style="fill:#D8D7DA;" d="M512,501.991H0v-360h512V501.991z"/>
<rect x="256" y="141.99" style="fill:#C6C5CA;" width="256" height="360"/>
<g>
	<path style="fill:#3E3D42;" d="M512,171.991H0V73.743l512-63.734V171.991z"/>
	<path style="fill:#3E3D42;" d="M441,501.991H71v-240h370V501.991z"/>
</g>
<g>
	<polygon style="fill:#2D2D30;" points="512,10.009 256,41.876 256,171.991 512,171.991 	"/>
	<rect x="256" y="261.99" style="fill:#2D2D30;" width="185" height="240"/>
</g>
<path style="fill:#A0815C;" d="M251,421.991H121v-110h130V421.991z"/>
<rect x="171" y="311.99" style="fill:#FFA733;" width="30" height="50"/>
<path style="fill:#EE8700;" d="M401,501.991H271v-110h130V501.991z"/>
<rect x="321" y="391.99" style="fill:#FFDE55;" width="30" height="50"/>
<path style="fill:#FFDA44;" d="M441,291.991H71v-80h370V291.991z"/>
<rect x="256" y="211.99" style="fill:#FF9811;" width="185" height="80"/>
<path style="fill:#FF5023;" d="M251,501.991H121v-110h130V501.991z"/>
<rect x="171" y="391.99" style="fill:#FFEB99;" width="30" height="50"/>
<g>
</g>
<g>
</g>
<g>
</g>
<g>
</g>
<g>
</g>
<g>
</g>
<g>
</g>
<g>
</g>
<g>
</g>
<g>
</g>
<g>
</g>
<g>
</g>
<g>
</g>
<g>
</g>
<g>
</g>
</svg>
